<svg width="25" height="22" fill="none" xmlns="http://www.w3.org/2000/svg"><path d="M14.47.5C8.532.337 3.667 5.108 3.667 11H1.578a.577.577 0 00-.408.992l3.255 3.266a.577.577 0 00.828 0l3.255-3.266a.583.583 0 00-.42-.992H6c0-4.55 3.71-8.225 8.283-8.167 4.34.059 7.992 3.71 8.05 8.05.059 4.562-3.616 8.284-8.166 8.284a8.044 8.044 0 01-4.994-1.727 1.16 1.16 0 00-1.54.093c-.49.49-.455 1.319.094 1.739a10.335 10.335 0 006.44 2.228c5.891 0 10.663-4.865 10.5-10.803C24.515 5.225 19.942.652 14.47.5zm-.595 5.833a.881.881 0 00-.875.875v4.294c0 .408.222.793.572 1.003l3.64 2.158a.884.884 0 001.201-.303.884.884 0 00-.303-1.202l-3.36-1.995V7.197a.88.88 0 00-.875-.864z" fill="#00B0D7"/></svg>